<mxfile host="app.diagrams.net" modified="2023-12-29T14:16:13.461Z" agent="Mozilla/5.0 (Windows NT 10.0; Win64; x64) AppleWebKit/537.36 (KHTML, like Gecko) Chrome/120.0.0.0 Safari/537.36" version="22.1.15" etag="Z0eLd2DyJsq7itPiTo7P" type="github">
  <diagram name="第 1 页" id="W5sLSd_b3miJjGB8gRQF">
    <mxGraphModel>
      <root>
        <mxCell id="0" />
        <mxCell id="1" parent="0" />
      </root>
    </mxGraphModel>
  </diagram>
</mxfile>
